Coordinates
version=1
nRows=6
nColumns=34
inDegrees=yes

Units are S.I. units (second, meters, Newtons, ...)
If the header above contains a line with 'inDegrees', this indicates whether rotational values are in degrees (yes) or radians (no).

endheader
time	pelvis_tilt	pelvis_list	pelvis_rotation	pelvis_tx	pelvis_ty	pelvis_tz	hip_flexion_r	hip_adduction_r	hip_rotation_r	knee_angle_r	ankle_angle_r	subtalar_angle_r	mtp_angle_r	hip_flexion_l	hip_adduction_l	hip_rotation_l	knee_angle_l	ankle_angle_l	subtalar_angle_l	mtp_angle_l	lumbar_extension	lumbar_bending	lumbar_rotation	arm_flex_r	arm_add_r	arm_rot_r	elbow_flex_r	pro_sup_r	arm_flex_l	arm_add_l	arm_rot_l	elbow_flex_l	pro_sup_l
      1.66666670	     -4.11869788	     -0.47379804	      3.19916945	      0.34299585	      1.58670171	     -0.18900618	      9.91027677	     -2.75525693	     -4.26676017	     21.73047789	      7.81230983	    -14.58862632	      0.00000000	     -0.32838747	      3.73359433	      7.19626408	      2.28998671	      2.77163747	    -13.98363064	      0.00000000	     -0.65210195	     -4.76614269	     -4.73048352	     -5.41999662	     -6.47707225	     -2.26195357	     29.09455871	     85.82381212	   -188.11397853	   -170.58653561	   -180.39223203	     25.87358718	     86.01100265
      1.68333330	     -4.19177874	     -0.33852776	      3.11326352	      0.34282446	      1.58254284	     -0.18873859	     12.56005315	     -3.38902856	     -4.32905769	     26.79765002	      8.88326116	    -14.50079126	      0.00000000	     -0.01241464	      3.96817209	      6.76577917	      2.64562605	      2.85420258	    -14.22881128	      0.00000000	     -1.19942702	     -5.34686331	     -4.26342977	     -5.55426727	     -6.28395049	     -2.56625352	     29.40253983	     85.85612902	   -188.57853321	   -170.10312020	   -181.70768163	     26.95918081	     85.98050153
      1.70000000	     -4.04217848	     -0.08902825	      3.05235495	      0.34388204	      1.58252133	     -0.18935635	     14.90363271	     -4.03983058	     -3.90648894	     31.40404887	      9.43779221	    -14.78916114	      0.00000000	     -0.10309414	      4.28386048	      6.39660264	      2.77501166	      2.85299059	    -14.42018977	      0.00000000	     -1.95414890	     -6.05359669	     -3.92954684	     -5.57853853	     -6.09441830	     -2.82281631	     29.97329887	     85.91868398	   -188.90552950	   -169.47490539	   -182.39889980	     27.43972142	     86.01568587
      1.71666670	     -3.99138795	      0.06610836	      3.15054743	      0.35333765	      1.58233137	     -0.19354153	     16.95527903	     -4.63530119	     -3.54131753	     35.24324050	     10.19537419	    -14.91762071	      0.00000000	     -0.13407045	      4.55152905	      6.17202007	      3.05196926	      2.66437884	    -14.65754524	      0.00000000	     -2.36539111	     -6.58621605	     -3.96939372	     -6.10024267	     -5.90183560	     -3.50454871	     30.87281127	     85.96358126	   -189.47558502	   -169.00704575	   -182.97323613	     27.90981627	     86.08263950
      1.73333330	     -3.98034320	      0.21923862	      3.31945523	      0.34387031	      1.58166824	     -0.19815117	     19.33595510	     -5.40573325	     -3.38689246	     38.84404053	     10.81125394	    -15.11391804	      0.00000000	     -0.06538554	      4.87521586	      6.08990250	      3.33509995	      2.85580902	    -14.86555531	      0.00000000	     -2.90497836	     -7.01642607	     -4.29723524	     -6.39495963	     -5.79020365	     -4.27712734	     31.98115466	     86.02204115	   -189.46882182	   -168.56826548	   -183.09774407	     28.09628607	     86.20559465
      1.75000000	     -3.87747873	      0.35692602	      3.23488593	      0.34389826	      1.58171578	     -0.19782201	     21.56566532	     -6.06816856	     -3.18702880	     41.85143873	     11.13476809	    -15.23668332	      0.00000000	     -0.21554878	      5.14810451	      5.98378118	      3.39418337	      2.87983421	    -15.00484748	      0.00000000	     -3.66124277	     -7.34065347	     -4.70607358	     -6.41926211	     -5.64481703	     -5.00545183	     32.94004231	     86.08699795	   -189.24714905	   -168.10855206	   -182.91792108	     28.29519322	     86.35338132
